<mxfile host="app.diagrams.net" modified="2020-05-12T13:13:52.905Z" agent="5.0 (Windows NT 10.0; Win64; x64) AppleWebKit/537.36 (KHTML, like Gecko) Chrome/81.0.4044.138 Safari/537.36" etag="wv1dviNmC9746fTFYG_u" version="13.1.0" type="github" pages="2">
  <diagram id="XArAuKknsJqyq5xR6UzO" name="RandomForest">
    <mxGraphModel dx="1021" dy="769" grid="1" gridSize="10" guides="1" tooltips="1" connect="1" arrows="1" fold="1" page="1" pageScale="1" pageWidth="827" pageHeight="1169" math="0" shadow="0">
      <root>
        <mxCell id="0" />
        <mxCell id="1" parent="0" />
        <mxCell id="kK-yuNtH3X_ihQuzG4NS-1" value="GÅ‚osowanie" style="rounded=1;whiteSpace=wrap;html=1;fillColor=#dae8fc;strokeColor=#6c8ebf;" parent="1" vertex="1">
          <mxGeometry x="290" y="230" width="310" height="40" as="geometry" />
        </mxCell>
        <mxCell id="kK-yuNtH3X_ihQuzG4NS-2" value="Wynikowa predykcja" style="rounded=1;whiteSpace=wrap;html=1;fillColor=#dae8fc;strokeColor=#6c8ebf;" parent="1" vertex="1">
          <mxGeometry x="385" y="130" width="120" height="40" as="geometry" />
        </mxCell>
        <mxCell id="kK-yuNtH3X_ihQuzG4NS-3" value="Drzewo decyzyjne" style="rounded=1;whiteSpace=wrap;html=1;fillColor=#dae8fc;strokeColor=#6c8ebf;" parent="1" vertex="1">
          <mxGeometry x="290" y="310" width="120" height="40" as="geometry" />
        </mxCell>
        <mxCell id="kK-yuNtH3X_ihQuzG4NS-4" value="Drzewo decyzyjne" style="rounded=1;whiteSpace=wrap;html=1;fillColor=#dae8fc;strokeColor=#6c8ebf;" parent="1" vertex="1">
          <mxGeometry x="480" y="310" width="120" height="40" as="geometry" />
        </mxCell>
        <mxCell id="kK-yuNtH3X_ihQuzG4NS-5" value="" style="endArrow=classic;html=1;entryX=0.5;entryY=1;entryDx=0;entryDy=0;" parent="1" source="kK-yuNtH3X_ihQuzG4NS-1" target="kK-yuNtH3X_ihQuzG4NS-2" edge="1">
          <mxGeometry width="50" height="50" relative="1" as="geometry">
            <mxPoint x="410" y="270" as="sourcePoint" />
            <mxPoint x="460" y="220" as="targetPoint" />
          </mxGeometry>
        </mxCell>
        <mxCell id="kK-yuNtH3X_ihQuzG4NS-6" value="&lt;font style=&quot;font-size: 25px&quot;&gt;...&lt;/font&gt;" style="text;html=1;align=center;verticalAlign=middle;resizable=0;points=[];autosize=1;" parent="1" vertex="1">
          <mxGeometry x="425" y="320" width="40" height="20" as="geometry" />
        </mxCell>
        <mxCell id="kK-yuNtH3X_ihQuzG4NS-7" value="" style="endArrow=classic;html=1;exitX=0.583;exitY=0;exitDx=0;exitDy=0;entryX=0.226;entryY=1.025;entryDx=0;entryDy=0;entryPerimeter=0;exitPerimeter=0;" parent="1" source="kK-yuNtH3X_ihQuzG4NS-3" target="kK-yuNtH3X_ihQuzG4NS-1" edge="1">
          <mxGeometry width="50" height="50" relative="1" as="geometry">
            <mxPoint x="340" y="490" as="sourcePoint" />
            <mxPoint x="347" y="271" as="targetPoint" />
          </mxGeometry>
        </mxCell>
        <mxCell id="kK-yuNtH3X_ihQuzG4NS-8" value="" style="endArrow=classic;html=1;" parent="1" edge="1">
          <mxGeometry width="50" height="50" relative="1" as="geometry">
            <mxPoint x="536" y="310" as="sourcePoint" />
            <mxPoint x="536" y="270" as="targetPoint" />
          </mxGeometry>
        </mxCell>
      </root>
    </mxGraphModel>
  </diagram>
  <diagram id="9WPvpmgzdbPARmL7wWRL" name="SchematMachineLearning">
    <mxGraphModel dx="936" dy="769" grid="1" gridSize="10" guides="1" tooltips="1" connect="1" arrows="1" fold="1" page="1" pageScale="1" pageWidth="827" pageHeight="1169" math="0" shadow="0">
      <root>
        <mxCell id="i8W28O-h85ZlFLiaDjJw-0" />
        <mxCell id="i8W28O-h85ZlFLiaDjJw-1" parent="i8W28O-h85ZlFLiaDjJw-0" />
        <mxCell id="i8W28O-h85ZlFLiaDjJw-2" value="Dane" style="strokeWidth=1;html=1;shape=mxgraph.flowchart.database;whiteSpace=wrap;fillColor=#dae8fc;strokeColor=#6c8ebf;" vertex="1" parent="i8W28O-h85ZlFLiaDjJw-1">
          <mxGeometry x="210" y="218.75" width="70" height="67.5" as="geometry" />
        </mxCell>
        <mxCell id="i8W28O-h85ZlFLiaDjJw-3" value="Metoda Uczenia Maszynowego" style="rounded=1;whiteSpace=wrap;html=1;fillColor=#dae8fc;strokeColor=#6c8ebf;" vertex="1" parent="i8W28O-h85ZlFLiaDjJw-1">
          <mxGeometry x="330" y="226.25" width="120" height="60" as="geometry" />
        </mxCell>
        <mxCell id="i8W28O-h85ZlFLiaDjJw-4" value="Inteligencja" style="rounded=1;whiteSpace=wrap;html=1;fillColor=#dae8fc;strokeColor=#6c8ebf;" vertex="1" parent="i8W28O-h85ZlFLiaDjJw-1">
          <mxGeometry x="490" y="226.25" width="120" height="60" as="geometry" />
        </mxCell>
        <mxCell id="i8W28O-h85ZlFLiaDjJw-5" value="" style="endArrow=classic;html=1;entryX=0;entryY=0.5;entryDx=0;entryDy=0;" edge="1" parent="i8W28O-h85ZlFLiaDjJw-1" target="i8W28O-h85ZlFLiaDjJw-3">
          <mxGeometry width="50" height="50" relative="1" as="geometry">
            <mxPoint x="280" y="256" as="sourcePoint" />
            <mxPoint x="330" y="300" as="targetPoint" />
          </mxGeometry>
        </mxCell>
        <mxCell id="i8W28O-h85ZlFLiaDjJw-6" value="" style="endArrow=classic;html=1;exitX=1;exitY=0.5;exitDx=0;exitDy=0;entryX=0;entryY=0.5;entryDx=0;entryDy=0;" edge="1" parent="i8W28O-h85ZlFLiaDjJw-1" source="i8W28O-h85ZlFLiaDjJw-3" target="i8W28O-h85ZlFLiaDjJw-4">
          <mxGeometry width="50" height="50" relative="1" as="geometry">
            <mxPoint x="450" y="370" as="sourcePoint" />
            <mxPoint x="500" y="320" as="targetPoint" />
          </mxGeometry>
        </mxCell>
      </root>
    </mxGraphModel>
  </diagram>
</mxfile>
